<?xml version="1.0" standalone="no"?>
<!DOCTYPE svg PUBLIC "-//W3C//DTD SVG 20010904//EN"
 "http://www.w3.org/TR/2001/REC-SVG-20010904/DTD/svg10.dtd">
<svg version="1.0" xmlns="http://www.w3.org/2000/svg"
 width="1085.000000pt" height="991.000000pt" viewBox="0 0 1085.000000 991.000000"
 preserveAspectRatio="xMidYMid meet">

<g transform="translate(0.000000,991.000000) scale(0.100000,-0.100000)"
fill="#FFFFFF" stroke="none">
<path d="M1265 9170 c-65 -14 -105 -57 -156 -163 -36 -76 -36 -107 -3 -205 31
-96 82 -190 175 -329 171 -255 276 -381 817 -983 l401 -444 -32 -36 c-847
-947 -987 -1108 -1128 -1292 -447 -585 -560 -981 -412 -1448 32 -101 153 -344
243 -488 73 -117 283 -401 392 -531 105 -124 372 -390 523 -521 749 -649 1710
-1084 2725 -1235 284 -42 488 -56 810 -57 431 0 650 22 1185 122 426 80 515
92 680 91 266 0 418 -65 725 -312 130 -105 238 -200 730 -648 80 -72 186 -161
235 -196 115 -83 308 -179 409 -205 97 -25 215 -26 281 -4 124 43 192 203 134
317 -70 137 -353 501 -600 772 -82 90 -730 785 -826 885 l-62 66 436 484 c503
560 621 696 783 910 152 201 199 274 270 423 83 172 110 272 117 427 9 203
-34 373 -162 637 -343 712 -924 1364 -1620 1818 -634 414 -1353 685 -2120 799
-499 74 -1070 76 -1555 5 -249 -36 -363 -59 -842 -175 -262 -62 -483 -114
-492 -114 -9 0 -256 219 -548 486 -625 571 -800 727 -989 878 -259 208 -420
289 -524 266z m4260 -2430 c522 -35 940 -142 1176 -300 197 -133 443 -385 574
-589 277 -430 422 -1237 316 -1757 -52 -255 -182 -404 -351 -404 -94 0 -166
37 -252 128 -148 158 -238 435 -238 737 0 254 -64 516 -171 696 -101 170 -253
318 -429 419 -183 104 -366 162 -665 210 -283 46 -457 93 -639 175 -138 61
-276 178 -327 275 -51 98 -20 230 69 297 127 96 507 141 937 113z m-1696 -984
c35 -19 101 -90 134 -147 45 -76 77 -177 128 -399 197 -855 339 -1234 548
-1461 183 -200 403 -297 826 -364 422 -67 592 -114 808 -221 151 -75 243 -175
267 -288 16 -77 2 -120 -57 -178 -128 -125 -419 -188 -813 -175 -544 18 -1072
173 -1391 408 -36 26 -119 104 -185 171 -196 202 -331 396 -459 661 -91 187
-137 311 -181 486 -123 489 -91 946 93 1316 76 153 130 205 211 205 24 0 55
-6 71 -14z"/>
</g>
</svg>
